<?xml version="1.0" standalone="no"?>
<!DOCTYPE svg PUBLIC "-//W3C//DTD SVG 20010904//EN"
 "http://www.w3.org/TR/2001/REC-SVG-20010904/DTD/svg10.dtd">
<svg version="1.0" xmlns="http://www.w3.org/2000/svg"
 width="250.000000pt" height="250.000000pt" viewBox="0 0 250.000000 250.000000"
 preserveAspectRatio="xMidYMid meet">
<metadata>
Created by potrace 1.14, written by Peter Selinger 2001-2017
</metadata>
<g transform="translate(0.000000,250.000000) scale(0.100000,-0.100000)"
fill="#000000" stroke="none">
<path d="M0 1250 l0 -1250 1250 0 1250 0 0 1250 0 1250 -1250 0 -1250 0 0
-1250z m1900 102 c0 -5 -21 -32 -47 -61 -39 -42 -62 -57 -116 -77 -91 -32
-158 -32 -190 0 -14 14 -41 28 -61 31 -20 4 -36 8 -36 10 0 1 5 16 11 33 9 27
16 31 59 37 37 5 55 3 72 -9 30 -21 50 -20 82 5 14 11 48 24 74 29 64 11 152
12 152 2z m-474 -80 c-8 -15 -24 -36 -36 -47 -12 -11 -26 -30 -31 -42 -11 -30
-44 -50 -131 -80 -60 -21 -92 -26 -184 -27 -111 -1 -112 -1 -190 39 -57 29
-88 52 -112 85 l-35 45 49 6 c27 3 105 7 174 8 69 1 154 6 190 10 50 7 69 5
81 -5 21 -19 49 -18 79 3 22 16 52 22 138 31 21 2 22 1 8 -26z m425 -86 c99
-42 136 -163 85 -279 -32 -73 -72 -100 -151 -105 -54 -2 -63 0 -93 25 -35 30
-53 82 -45 128 5 25 6 26 20 5 18 -25 33 -26 33 -1 0 27 -35 67 -70 80 -16 6
-44 16 -61 23 -17 6 -37 22 -46 35 -14 21 -14 24 8 42 15 12 46 20 89 24 36 3
83 12 105 20 52 19 85 20 126 3z m-421 -66 c19 0 21 -4 15 -32 -10 -44 -28
-63 -73 -76 -20 -6 -64 -18 -96 -28 -54 -15 -116 -61 -116 -86 0 -18 29 -6 44
17 24 36 56 33 56 -5 0 -72 -55 -154 -134 -199 -181 -104 -383 79 -280 255 43
73 66 84 175 81 109 -2 217 20 301 63 37 19 58 25 70 19 9 -5 26 -9 38 -9z"/>
<path d="M1736 1123 c-11 -11 -6 -23 9 -23 8 0 15 4 15 9 0 13 -16 22 -24 14z"/>
<path d="M1854 1119 c-10 -17 13 -36 27 -22 12 12 4 33 -11 33 -5 0 -12 -5
-16 -11z"/>
<path d="M1796 1033 c-12 -12 -6 -33 9 -33 8 0 15 6 15 14 0 17 -14 28 -24 19z"/>
<path d="M1875 1001 c-8 -15 3 -31 21 -31 9 0 14 7 12 17 -4 20 -24 28 -33 14z"/>
<path d="M980 990 c0 -13 5 -20 13 -17 6 2 12 10 12 17 0 7 -6 15 -12 18 -8 2
-13 -5 -13 -18z"/>
<path d="M900 900 c0 -23 25 -27 33 -6 7 16 -1 26 -20 26 -7 0 -13 -9 -13 -20z"/>
<path d="M990 855 c0 -8 7 -15 15 -15 8 0 15 7 15 15 0 8 -7 15 -15 15 -8 0
-15 -7 -15 -15z"/>
</g>
</svg>
